{"title":"The Fast And The Furious Hindi 1 to 4","uid":6280670,"size":3332970531,"categoryP":"video","categoryS":"movies","magnet":"?xt=urn:btih:d7f2ef5409d0bb9a87c3526e3da22bf3d7a4790a&amp;dn=The+Fast+And+The+Furious+Hindi+1+to+4&amp;tr=udp%3A%2F%2Ftracker.openbittorrent.com%3A80&amp;tr=udp%3A%2F%2Fopen.demonii.com%3A1337&amp;tr=udp%3A%2F%2Ftracker.coppersurfer.tk%3A6969&amp;tr=udp%3A%2F%2Fexodus.desync.com%3A6969","seeders":2,"leechers":4,"uploader":"love4959","files":-1,"time":1301423929,"description":"-----------------------------------------------------------------------\n                    The Fast and The Furious 2001\n-----------------------------------------------------------------------\nTitle..................: The Fast and The Furious 2001 \nGenre..................: Action | Adventure | Racing\nDirecter...............: Rob Cohen\nRun time...............: 1h 42mn 28sec\nsize ..................: 887 MB\nLanguages..............: English.Hindi\n________________________________________________________________________\nFormat                           : MKV\nDuration                         : 1h 42mn\nDisplay aspect ratio             : 16:9\nResolution                       : 672*272\nstream size                      : 674 MiB\n________________________________________________________________________\nAudio #1 :English\nID                               : 1\nFormat                           : AC-3\nDuration                         : 1h 42mn\nBit rate mode                    : Constant\nBit rate                         : 160 Kbps\nChannel(s)                       : 6 channels\nChannel positions                : Front: L C R, Side: L R, LFE\nSampling rate                    : 48.0 KHz\nStream size                      : 117 MiB \n_________________________________________________________________________\nAudio #2 :Hindi\nID                               : 2\nFormat                           : MPEG 1 Layer 3 \nDuration                         : 1h 42mn\nBit rate mode                    : Constant\nBit rate                         : 128 Kbps\nChannel(s)                       : 2 channels\nChannel positions                : Front: L R\nSampling rate                    : 44100 Hz\nStream size                      : 93.8 MiB\n\n-------------------------------------------------------------------------\n                         2 Fast 2 Furious\n-------------------------------------------------------------------------\nTitle..................: 2 Fast 2 Furious\nYear...................: 2003\nGenre..................: Action | Racing\nDirecter...............: John Singleton\nRun time...............: 1h 47mn 41sec\nsize ..................: 796 MB\nLanguages..............: English.Hindi\n_________________________________________________________________________\nFormat                           : MKV\nDuration                         : 1h 47mn 41sec\nDisplay aspect ratio             : 16:9\nResolution                       : 648*276\nStream size                      : 607 MiB \n_________________________________________________________________________\nAudio #1 :English\nID                               : 1\nFormat                           : MPEG 1 Layer 3\nDuration                         : 1h 47mn 41sec\nBit rate mode                    : Constant\nBit rate                         : 96 Kbps\nChannel(s)                       : 2 channels\nChannel positions                : Front: L R\nSampling rate                    : 48.0 KHz\nStream size                      : 87.8 MiB \n_________________________________________________________________________\nAudio #2 :Hindi\nID                               : 2\nFormat                           : MPEG 1 Layer 3 \nDuration                         : 1h 47mn 41sec\nBit rate mode                    : Constant\nBit rate                         : 128 Kbps\nChannel(s)                       : 2 channels\nChannel positions                : Front: L R\nSampling rate                    : 48 Hz\nStream size                      : 98.6 MiB\n\n--------------------------------------------------------------------------\n              The Fast And The Furious - Tokyo Drift\n--------------------------------------------------------------------------\nTitle..................: The Fast And The Furious - Tokyo Drift\nYear...................: 2006\nGenre..................: Action | Racing\nDirecter...............: Justin Lin\nRun time...............: 1h 44mn 14sec\nsize ..................: 792 MB\nLanguages..............: English.Hindi\n__________________________________________________________________________\nVideo\nFormat                           : MKV\nDuration                         : 1h 44mn 14sec\nDisplay aspect ratio             : 16:9\nResolution                       : 648*276\nStream size                      : 611 MiB \n__________________________________________________________________________\nAudio #1 :English\nID                               : 1\nFormat                           : MPEG 1 Layer 3\nDuration                         : 1h 44mn 14sec\nBit rate mode                    : Constant\nBit rate                         : 96 Kbps\nChannel(s)                       : 2 channels\nChannel positions                : Front: L R\nSampling rate                    : 48.0 KHz\nStream size                      : 83.5 MiB \n__________________________________________________________________________\nAudio #2 :Hindi\nID                               : 2\nFormat                           : MPEG 1 Layer 3 \nDuration                         : 1h 44mn 14sec\nBit rate mode                    : Constant\nBit rate                         : 128 Kbps\nChannel(s)                       : 2 channels\nChannel positions                : Front: L R\nSampling rate                    : 48 Hz\nStream size                      : 95.4 MiB\n__________________________________________________________________________\n\n--------------------------------------------------------------------------\n              The Fast And The Furious 2009\n--------------------------------------------------------------------------\nTitle..................: The Fast And The Furious\nYear...................: 2009\nGenre..................: Action | Racing\nDirecter...............: Justin Lin\nRun time...............: 1h 45mn 50sec\nsize ..................: 701 MB\nLanguages..............: English.Hindi\n__________________________________________________________________________\nVideo\nFormat                           : MKV\nDuration                         : 1h 45mn 50sec\nDisplay aspect ratio             : 16:9\nResolution                       : 648*276\nStream size                      : 589 MiB \n__________________________________________________________________________\nAudio #1 :English\nID                               : 1\nFormat                           : MPEG 1 Layer 3\nDuration                         : 1h 45mn 50sec\nBit rate mode                    : Constant\nBit rate                         : 96 Kbps\nChannel(s)                       : 2 channels\nChannel positions                : Front: L R\nSampling rate                    : 48.0 KHz\nStream size                      : 63.5 MiB \n___________________________________________________________________________\nAudio #2 :Hindi\nID                               : 2\nFormat                           : MPEG 1 Layer 3 \nDuration                         : 1h 45mn 50sec\nBit rate mode                    : Constant\nBit rate                         : 128 Kbps\nChannel(s)                       : 2 channels\nChannel positions                : Front: L R\nSampling rate                    : 48 Hz\nStream size                      : 75.4 MiB\n____________________________________________________________________________\n\nPLEASE SEED PLEASE SEED PLEASE SEED ----- PLEASE SEED PLEASE SEED PLEASE SEED","torrent":{"xt":"urn:btih:d7f2ef5409d0bb9a87c3526e3da22bf3d7a4790a","amp;dn":"The+Fast+And+The+Furious+Hindi+1+to+4","amp;tr":["udp%3A%2F%2Ftracker.openbittorrent.com%3A80","udp%3A%2F%2Fopen.demonii.com%3A1337","udp%3A%2F%2Ftracker.coppersurfer.tk%3A6969","udp%3A%2F%2Fexodus.desync.com%3A6969"],"infoHash":"d7f2ef5409d0bb9a87c3526e3da22bf3d7a4790a","infoHashBuffer":{"type":"Buffer","data":[215,242,239,84,9,208,187,154,135,195,82,110,61,162,43,243,215,164,121,10]},"announce":[],"urlList":[]}}